<svg width="1256" height="177" viewBox="0 0 1256 177" fill="none" xmlns="http://www.w3.org/2000/svg">
<path d="M13.44 15.28L11.92 16.8H8.62L7.78 15.96V10.44L8.62 9.6H11.78L13.3 11.12L15.76 8.66L13.5 6.4H6.88L4.18 9.1V17.3L6.88 20H13.64L15.9 17.74L13.44 15.28ZM25.0314 9.98H19.2114L17.5714 11.62L19.5914 13.64L20.7514 12.48H22.9314L23.4514 13V13.78L18.9514 14.04L17.4114 15.58V18.32L19.0914 20H22.2314L23.8114 18.42L23.8514 20H26.8514V11.8L25.0314 9.98ZM21.1714 17.5L20.8114 17.14V16.24L21.1714 15.88L23.4514 15.74V16.36L22.3114 17.5H21.1714ZM36.58 12.7V9.98H33.94V6.4H31.22L30.74 9.98H28.5V12.7H30.54V17.86L32.68 20H36.58V17.28H34.7L33.94 16.52V12.7H36.58ZM45.8736 9.98H40.5136L38.3736 12.12V17.86L40.5136 20H46.1736L48.0136 18.16L46.0336 16.18L44.7136 17.5H42.2936L41.7736 16.98V15.98H48.0136V12.12L45.8736 9.98ZM41.7736 13.92V13L42.2936 12.48H44.0936L44.6136 13V13.92H41.7736ZM59.2784 9.98H52.5984L49.7584 12.82V17.74L51.8984 19.88H54.2984L55.8784 18.3V20.76L54.9384 21.7H53.0784L52.0784 20.7L50.0584 22.72L51.5384 24.2H56.8584L59.2784 21.78V9.98ZM54.5984 17.16H53.9184L53.1584 16.4V13.84L54.2984 12.7H55.8784V15.88L54.5984 17.16ZM68.9186 9.98H63.6386L61.4986 12.12V17.86L63.6386 20H68.9186L71.0586 17.86V12.12L68.9186 9.98ZM67.1386 17.28H65.4186L64.8986 16.76V13.22L65.4186 12.7H67.1386L67.6586 13.22V16.76L67.1386 17.28ZM78.1039 9.98L76.3439 11.74L76.2839 9.98H73.2839V20H76.6839V13.82L77.3839 13.12H80.2239V9.98H78.1039ZM81.9948 8.44H85.3948V5.6H81.9948V8.44ZM81.9948 20H85.3948V9.98H81.9948V20ZM95.1119 9.98H89.7519L87.6119 12.12V17.86L89.7519 20H95.4119L97.2519 18.16L95.2719 16.18L93.9519 17.5H91.5319L91.0119 16.98V15.98H97.2519V12.12L95.1119 9.98ZM91.0119 13.92V13L91.5319 12.48H93.3319L93.8519 13V13.92H91.0119ZM103.157 5.6H100.297V8.44H103.157V5.6ZM107.497 5.6H104.637V8.44H107.497V5.6ZM106.577 9.98H101.217L99.0767 12.12V17.86L101.217 20H106.877L108.717 18.16L106.737 16.18L105.417 17.5H102.997L102.477 16.98V15.98H108.717V12.12L106.577 9.98ZM102.477 13.92V13L102.997 12.48H104.797L105.317 13V13.92H102.477ZM118.422 9.98H115.502L113.922 11.56L113.882 9.98H110.882V20H114.282V13.62L115.202 12.7H116.402L116.842 13.14V20H120.242V11.8L118.422 9.98Z" fill="#090940"/>
<path d="M1051.76 5.4H1042.54V19H1051.76L1054.46 16.3V8.1L1051.76 5.4ZM1050.86 14.96L1050.02 15.8H1046.14V8.6H1050.02L1050.86 9.44V14.96ZM1062.75 8.98V15.36L1061.83 16.28H1060.63L1060.19 15.84V8.98H1056.79V17.18L1058.61 19H1061.53L1063.11 17.42L1063.15 19H1066.15V8.98H1062.75ZM1074.53 8.98V15.36L1073.61 16.28H1072.41L1071.97 15.84V8.98H1068.57V17.18L1070.39 19H1073.31L1074.89 17.42L1074.93 19H1077.93V8.98H1074.53ZM1085.3 8.98L1083.54 10.74L1083.48 8.98H1080.48V19H1083.88V12.82L1084.58 12.12H1087.42V8.98H1085.3Z" fill="#090940"/>
<path d="M1183.06 5.4V12.86L1177.88 5.4H1174.54V19H1177.98V10.98L1183.54 19H1186.5V5.4H1183.06ZM1189.32 7.44H1192.72V4.6H1189.32V7.44ZM1189.32 19H1192.72V8.98H1189.32V19ZM1201.42 8.98L1199.68 14.9L1197.92 8.98H1194.32L1197.94 19H1201.24L1204.86 8.98H1201.42ZM1213.61 8.98H1208.25L1206.11 11.12V16.86L1208.25 19H1213.91L1215.75 17.16L1213.77 15.18L1212.45 16.5H1210.03L1209.51 15.98V14.98H1215.75V11.12L1213.61 8.98ZM1209.51 12.92V12L1210.03 11.48H1211.83L1212.35 12V12.92H1209.51ZM1224.97 8.98H1219.15L1217.51 10.62L1219.53 12.64L1220.69 11.48H1222.87L1223.39 12V12.78L1218.89 13.04L1217.35 14.58V17.32L1219.03 19H1222.17L1223.75 17.42L1223.79 19H1226.79V10.8L1224.97 8.98ZM1221.11 16.5L1220.75 16.14V15.24L1221.11 14.88L1223.39 14.74V15.36L1222.25 16.5H1221.11ZM1235.04 8.98V15.36L1234.12 16.28H1232.92L1232.48 15.84V8.98H1229.08V17.18L1230.9 19H1233.82L1235.4 17.42L1235.44 19H1238.44V8.98H1235.04Z" fill="#090940"/>
<path d="M1184.22 151.52L1182.32 153.42H1178.04L1176.4 151.78V144.62L1178.04 142.98H1182.18L1184.08 144.88L1185.26 143.7L1182.96 141.4H1177.26L1174.64 144.02V152.38L1177.26 155H1183.1L1185.4 152.7L1184.22 151.52ZM1194.58 145.24H1189.94L1187.88 147.3V152.94L1189.94 155H1194.58L1196.64 152.94V147.3L1194.58 145.24ZM1193.84 153.5H1190.68L1189.56 152.38V147.86L1190.68 146.74H1193.84L1194.96 147.86V152.38L1193.84 153.5ZM1212 145.24H1208.94L1207.42 146.76L1205.88 145.24H1203L1201.38 146.86L1201.32 145.24H1199.8V155H1201.48V148.34L1203.08 146.74H1205.06L1205.92 147.6V155H1207.6V148.16L1209.02 146.74H1211.18L1212.04 147.6V155H1213.72V146.96L1212 145.24ZM1223.68 145.24H1220.56L1218.7 147.1L1218.62 145.24H1217.1V159.2H1218.78V155H1223.02L1225.74 152.28V147.3L1223.68 145.24ZM1222.34 153.5H1218.78V148.6L1220.64 146.74H1222.86L1224.06 147.94V151.78L1222.34 153.5ZM1231.18 153.5L1230.36 152.68V140.6H1228.68V153.24L1230.44 155H1232.4V153.5H1231.18ZM1241.24 145.24H1236.6L1234.54 147.3V152.94L1236.6 155H1241.54L1243.3 153.24L1242.2 152.14L1240.82 153.52H1237.36L1236.22 152.38V150.72H1243.3V147.3L1241.24 145.24ZM1236.22 149.26V147.86L1237.36 146.72H1240.48L1241.62 147.86V149.26H1236.22ZM1254.84 155L1251.12 149.98L1254.64 145.24H1252.74L1250.08 148.9L1247.42 145.24H1245.38L1248.9 149.98L1245.18 155H1247.08L1249.94 151.08L1252.82 155H1254.84Z" fill="#090940"/>
<path d="M1183.08 80.52L1177.28 80.12L1176.22 79.06V77.24L1177.48 75.98H1181.94L1183.66 77.7L1184.84 76.52L1182.72 74.4H1176.7L1174.46 76.64V79.66L1176.48 81.68L1182.28 82.08L1183.34 83.14V85.16L1182.08 86.42H1177.1L1175.3 84.62L1174.12 85.8L1176.32 88H1182.86L1185.1 85.76V82.54L1183.08 80.52ZM1188.1 75.94H1189.78V73.76H1188.1V75.94ZM1188.1 88H1189.78V78.24H1188.1V88ZM1205.5 78.24H1202.44L1200.92 79.76L1199.38 78.24H1196.5L1194.88 79.86L1194.82 78.24H1193.3V88H1194.98V81.34L1196.58 79.74H1198.56L1199.42 80.6V88H1201.1V81.16L1202.52 79.74H1204.68L1205.54 80.6V88H1207.22V79.96L1205.5 78.24ZM1217.18 78.24H1214.06L1212.2 80.1L1212.12 78.24H1210.6V92.2H1212.28V88H1216.52L1219.24 85.28V80.3L1217.18 78.24ZM1215.84 86.5H1212.28V81.6L1214.14 79.74H1216.36L1217.56 80.94V84.78L1215.84 86.5ZM1228.66 78.24H1224.02L1221.96 80.3V85.94L1224.02 88H1228.96L1230.72 86.24L1229.62 85.14L1228.24 86.52H1224.78L1223.64 85.38V83.72H1230.72V80.3L1228.66 78.24ZM1223.64 82.26V80.86L1224.78 79.72H1227.9L1229.04 80.86V82.26H1223.64ZM1236.1 86.5L1235.28 85.68V73.6H1233.6V86.24L1235.36 88H1237.32V86.5H1236.1Z" fill="#090940"/>
<line x1="1010.5" y1="53" x2="1010.5" y2="176" stroke="#D3D3D3"/>
<path fill-rule="evenodd" clip-rule="evenodd" d="M146.976 5C151.951 5 156 9.04871 156 13.9756C156 18.9513 151.951 23 146.976 23C142.049 23 138 18.9513 138 13.9756C138 9.04871 142.049 5 146.976 5ZM147.366 8.46339C148.195 8.46339 148.829 9.1463 148.829 9.92676C148.78 10.7561 148.146 11.3901 147.366 11.3901C146.537 11.3901 145.902 10.7072 145.902 9.92676C145.902 9.09744 146.585 8.46339 147.366 8.46339ZM149.463 18.3171C149.024 19.9269 144.732 20.0732 145.024 17.878C145.22 16.4147 145.512 15 145.756 13.5854C145.903 12.6585 145.317 12.9512 144.781 12.756C144.439 12.6096 144.439 12.1707 144.878 12.0731C145.415 11.9267 147.317 12.0243 147.951 12.0243C148.293 12.0243 148.488 12.2194 148.537 12.5609C148.537 12.8536 148.488 13.0975 148.439 13.3902C148.195 14.756 147.854 16.2195 147.659 17.5855C147.659 17.8782 147.708 18.4148 148.146 18.366C148.586 18.366 148.781 18.1709 149.122 18.0245C149.317 17.9269 149.512 18.0733 149.464 18.3171L149.463 18.3171Z" fill="#090940"/>
<path d="M72.3 141.4H66.26L63.64 144.02V152.38L66.26 155H72.3L74.92 152.38V144.02L72.3 141.4ZM71.52 153.42H67.04L65.4 151.78V144.62L67.04 142.98H71.52L73.16 144.62V151.78L71.52 153.42ZM81.9708 145.24L79.9108 147.3L79.8308 145.24H78.3108V155H79.9908V148.8L81.8708 146.92H83.9908V145.24H81.9708ZM94.4795 145.24H88.5595L85.8395 147.96V152.94L87.8995 155H90.9395L92.7995 153.14V156.36L91.4395 157.72H88.2795L87.2395 156.68L86.1395 157.78L87.5595 159.2H92.1395L94.4795 156.86V145.24ZM90.8595 153.5H88.7195L87.5195 152.3V148.46L89.2395 146.74H92.7995V151.56L90.8595 153.5ZM104.318 145.24H99.2583L97.5783 146.92L98.6783 148.02L99.9783 146.72H103.478L104.358 147.6V149.22L98.7783 149.6L97.3183 151.06V153.34L98.9783 155H102.578L104.438 153.14L104.518 155H106.038V146.96L104.318 145.24ZM102.478 153.52H99.7383L98.9983 152.78V151.62L99.5783 151.04L104.358 150.7V151.64L102.478 153.52ZM116.124 145.24H112.884L111.024 147.1L110.944 145.24H109.424V155H111.104V148.6L112.964 146.74H115.304L116.164 147.6V155H117.844V146.96L116.124 145.24ZM121.221 142.94H122.901V140.76H121.221V142.94ZM121.221 155H122.901V145.24H121.221V155ZM132.876 149.46L128.236 149.14L127.656 148.56V147.46L128.396 146.72H131.856L132.976 147.84L134.076 146.74L132.576 145.24H127.636L125.976 146.9V149.12L127.436 150.58L132.076 150.9L132.656 151.48V152.78L131.916 153.52H127.936L126.736 152.32L125.636 153.42L127.216 155H132.676L134.336 153.34V150.92L132.876 149.46ZM143.518 145.24H138.878L136.818 147.3V152.94L138.878 155H143.818L145.578 153.24L144.478 152.14L143.098 153.52H139.638L138.498 152.38V150.72H145.578V147.3L143.518 145.24ZM138.498 149.26V147.86L139.638 146.72H142.758L143.898 147.86V149.26H138.498ZM152.264 145.24L150.204 147.3L150.124 145.24H148.604V155H150.284V148.8L152.164 146.92H154.284V145.24H152.264ZM163.127 145.24H158.487L156.427 147.3V152.94L158.487 155H163.427L165.187 153.24L164.087 152.14L162.707 153.52H159.247L158.107 152.38V150.72H165.187V147.3L163.127 145.24ZM158.107 149.26V147.86L159.247 146.72H162.367L163.507 147.86V149.26H158.107ZM174.913 145.24H171.673L169.813 147.1L169.733 145.24H168.213V155H169.893V148.6L171.753 146.74H174.093L174.953 147.6V155H176.633V146.96L174.913 145.24ZM191.584 145.24H186.944L184.884 147.3V152.94L186.944 155H191.884L193.644 153.24L192.544 152.14L191.164 153.52H187.704L186.564 152.38V150.72H193.644V147.3L191.584 145.24ZM186.564 149.26V147.86L187.704 146.72H190.824L191.964 147.86V149.26H186.564ZM203.37 145.24H200.13L198.27 147.1L198.19 145.24H196.67V155H198.35V148.6L200.21 146.74H202.55L203.41 147.6V155H205.09V146.96L203.37 145.24ZM220.281 145.24H217.161L215.301 147.1L215.221 145.24H213.701V159.2H215.381V155H219.621L222.341 152.28V147.3L220.281 145.24ZM218.941 153.5H215.381V148.6L217.241 146.74H219.461L220.661 147.94V151.78L218.941 153.5ZM227.78 153.5L226.96 152.68V140.6H225.28V153.24L227.04 155H229V153.5H227.78ZM237.873 145.24H232.813L231.133 146.92L232.233 148.02L233.533 146.72H237.033L237.913 147.6V149.22L232.333 149.6L230.873 151.06V153.34L232.533 155H236.133L237.993 153.14L238.073 155H239.593V146.96L237.873 145.24ZM236.033 153.52H233.293L232.553 152.78V151.62L233.133 151.04L237.913 150.7V151.64L236.033 153.52ZM249.679 145.24H246.439L244.579 147.1L244.499 145.24H242.979V155H244.659V148.6L246.519 146.74H248.859L249.719 147.6V155H251.399V146.96L249.679 145.24ZM261.476 145.24H258.236L256.376 147.1L256.296 145.24H254.776V155H256.456V148.6L258.316 146.74H260.656L261.516 147.6V155H263.196V146.96L261.476 145.24ZM272.912 145.24H268.272L266.212 147.3V152.94L268.272 155H273.212L274.972 153.24L273.872 152.14L272.492 153.52H269.032L267.892 152.38V150.72H274.972V147.3L272.912 145.24ZM267.892 149.26V147.86L269.032 146.72H272.152L273.292 147.86V149.26H267.892ZM284.698 145.24H281.458L279.598 147.1L279.518 145.24H277.998V155H279.678V148.6L281.538 146.74H283.878L284.738 147.6V155H286.418V146.96L284.698 145.24Z" fill="#090940"/>
<path d="M28.5 120L53.1817 134.25V162.75L28.5 177L3.81828 162.75V134.25L28.5 120Z" fill="#E0DEDC"/>
<path d="M44 136.66C44 135.193 42.8065 134 41.3398 134H40.0739C39.4487 134 38.94 134.509 38.94 135.134V136.49L13.5118 136.49C12.6783 136.49 12 137.168 12 138.002V159.824C12 160.657 12.6783 161.335 13.5118 161.335H41.3393C42.7784 161.335 43.9717 160.165 43.9991 158.727C43.9994 158.715 43.9989 158.703 43.9989 158.69C43.9989 158.685 43.9996 158.68 43.9996 158.675L44 136.66ZM39.9479 135.134C39.9479 135.064 40.0043 135.008 40.0738 135.008H41.3397C42.2508 135.008 42.9921 135.749 42.9921 136.66V156.611C42.5125 156.229 41.9109 156.014 41.2972 156.014H40.0738C40.0043 156.014 39.9478 155.958 39.9478 155.888L39.9479 135.134ZM41.3398 160.328H13.5123C13.2344 160.328 13.0083 160.102 13.0083 159.824V138.002C13.0083 137.724 13.2344 137.498 13.5123 137.498H38.9404V155.889C38.9404 156.514 39.4491 157.023 40.0743 157.023H41.2977C41.753 157.023 42.1985 157.211 42.52 157.538C42.8329 157.857 43.0008 158.273 42.9924 158.708C42.9753 159.601 42.234 160.328 41.3402 160.328L41.3398 160.328Z" fill="#090940"/>
<path d="M27.2822 146.759H26.1899V143.511C26.1899 143.233 26.416 143.007 26.6939 143.007H32.7508C33.0287 143.007 33.2548 143.233 33.2548 143.511V143.783C33.0582 143.687 32.8145 143.728 32.6609 143.899C32.4746 144.106 32.4915 144.425 32.6985 144.611L33.4218 145.262C33.5176 145.348 33.6382 145.391 33.7588 145.391C33.8794 145.391 34.0002 145.348 34.0958 145.262L34.8191 144.611C35.0261 144.424 35.0427 144.106 34.8566 143.899C34.703 143.728 34.4596 143.687 34.2628 143.783V143.511C34.2628 142.678 33.5845 142 32.751 142H26.694C25.8604 142 25.1822 142.678 25.1822 143.511V146.759H24.0899C23.2564 146.759 22.5781 147.438 22.5781 148.271V149.554C22.5781 150.387 23.2564 151.066 24.0899 151.066H27.2823C28.1158 151.066 28.7941 150.387 28.7941 149.554V148.271C28.7941 147.437 28.1158 146.759 27.2823 146.759H27.2822ZM27.7861 149.554C27.7861 149.832 27.56 150.058 27.2822 150.058H24.0898C23.812 150.058 23.5859 149.832 23.5859 149.554V148.271C23.5859 147.993 23.812 147.767 24.0898 147.767H27.2822C27.56 147.767 27.7861 147.993 27.7861 148.271V149.554Z" fill="#090940"/>
<path d="M35.355 146.759H32.1627C31.3291 146.759 30.6509 147.438 30.6509 148.271V149.554C30.6509 150.387 31.3291 151.066 32.1627 151.066H35.355C36.1886 151.066 36.8668 150.387 36.8668 149.554V148.271C36.8668 147.437 36.1886 146.759 35.355 146.759ZM35.859 149.554C35.859 149.832 35.6329 150.058 35.355 150.058H32.1627C31.8848 150.058 31.6587 149.832 31.6587 149.554V148.271C31.6587 147.993 31.8848 147.767 32.1627 147.767H35.355C35.6329 147.767 35.859 147.993 35.859 148.271V149.554Z" fill="#090940"/>
<path d="M26.7467 153.151L26.0234 152.5C25.8317 152.328 25.5408 152.328 25.3491 152.5L24.6258 153.151C24.4191 153.338 24.4022 153.656 24.5885 153.863C24.7421 154.034 24.9858 154.075 25.1824 153.979V154.314C25.1824 154.592 24.9563 154.818 24.6784 154.818H18.6214C18.3436 154.818 18.1175 154.592 18.1175 154.314V151.066H19.2098C20.0433 151.066 20.7216 150.387 20.7216 149.554V148.271C20.7216 147.438 20.0433 146.759 19.2098 146.759H16.0172C15.1836 146.759 14.5054 147.438 14.5054 148.271V149.554C14.5054 150.387 15.1836 151.066 16.0172 151.066H17.1094V154.314C17.1094 155.147 17.7877 155.826 18.6212 155.826H24.6782C25.5117 155.826 26.19 155.147 26.19 154.314V153.98C26.2593 154.013 26.3342 154.03 26.4091 154.03C26.547 154.03 26.6843 153.974 26.7839 153.863C26.9702 153.656 26.9533 153.337 26.7466 153.151H26.7467ZM15.5133 149.554V148.271C15.5133 147.993 15.7394 147.767 16.0172 147.767H19.2095C19.4874 147.767 19.7135 147.993 19.7135 148.271V149.554C19.7135 149.832 19.4874 150.058 19.2095 150.058H16.0172C15.7394 150.058 15.5133 149.832 15.5133 149.554Z" fill="#090940"/>
<path d="M15.0093 143.007H20.2174C20.4957 143.007 20.7213 142.782 20.7213 142.503C20.7213 142.225 20.4957 142 20.2174 142H15.0093C14.731 142 14.5054 142.225 14.5054 142.503C14.5054 142.782 14.731 143.007 15.0093 143.007Z" fill="#090940"/>
<path d="M15.0093 145.181H18.1994C18.4777 145.181 18.7033 144.955 18.7033 144.677C18.7033 144.398 18.4777 144.173 18.1994 144.173H15.0093C14.731 144.173 14.5054 144.398 14.5054 144.677C14.5054 144.955 14.731 145.181 15.0093 145.181Z" fill="#090940"/>
<path d="M1066.5 52L1091.18 66.25V94.75L1066.5 109L1041.82 94.75V66.25L1066.5 52Z" fill="#E0DEDC"/>
<path d="M1065.4 74.9L1055.2 79.6V80.76L1065.4 85.46V83.82L1057.42 80.18L1065.4 76.54V74.9ZM1074.59 85.46V73.4H1072.77L1068.49 75.92L1069.27 77.24L1072.87 75.12V85.46H1069.07V87H1078.39V85.46H1074.59Z" fill="#090940"/>
<path d="M1108.36 77.24V83.64L1106.5 85.5H1104.16L1103.3 84.64V77.24H1101.62V85.28L1103.34 87H1106.58L1108.44 85.14L1108.52 87H1110.04V77.24H1108.36ZM1120.16 77.24V83.64L1118.3 85.5H1115.96L1115.1 84.64V77.24H1113.42V85.28L1115.14 87H1118.38L1120.24 85.14L1120.32 87H1121.84V77.24H1120.16ZM1129.01 77.24L1126.95 79.3L1126.87 77.24H1125.35V87H1127.03V80.8L1128.91 78.92H1131.03V77.24H1129.01Z" fill="#090940"/>
<path d="M1066.5 120L1091.18 134.25V162.75L1066.5 177L1041.82 162.75V134.25L1066.5 120Z" fill="#E0DEDC"/>
<path d="M1055.56 142.22V143.82L1062.98 146.58L1055.56 149.34V150.94L1065.56 147.16V146L1055.56 142.22ZM1055.56 153.94H1065.56V152.46H1055.56V153.94ZM1074.59 153.46V141.4H1072.77L1068.49 143.92L1069.27 145.24L1072.87 143.12V153.46H1069.07V155H1078.39V153.46H1074.59Z" fill="#090940"/>
<path d="M1108.36 145.24V151.64L1106.5 153.5H1104.16L1103.3 152.64V145.24H1101.62V153.28L1103.34 155H1106.58L1108.44 153.14L1108.52 155H1110.04V145.24H1108.36ZM1120.16 145.24V151.64L1118.3 153.5H1115.96L1115.1 152.64V145.24H1113.42V153.28L1115.14 155H1118.38L1120.24 153.14L1120.32 155H1121.84V145.24H1120.16ZM1129.01 145.24L1126.95 147.3L1126.87 145.24H1125.35V155H1127.03V148.8L1128.91 146.92H1131.03V145.24H1129.01Z" fill="#090940"/>
<path d="M72.3 75.4H66.26L63.64 78.02V86.38L66.26 89H72.3L74.92 86.38V78.02L72.3 75.4ZM71.52 87.42H67.04L65.4 85.78V78.62L67.04 76.98H71.52L73.16 78.62V85.78L71.52 87.42ZM85.0108 79.24H81.7708L79.9108 81.1L79.8308 79.24H78.3108V89H79.9908V82.6L81.8508 80.74H84.1908L85.0508 81.6V89H86.7308V80.96L85.0108 79.24ZM96.6277 74.6V79.24H92.3877L89.6677 81.96V86.94L91.7277 89H94.8477L96.7077 87.14L96.7877 89H98.3077V74.6H96.6277ZM94.7677 87.5H92.5477L91.3477 86.3V82.46L93.0677 80.74H96.6277V85.64L94.7677 87.5ZM108.166 79.24H103.526L101.466 81.3V86.94L103.526 89H108.466L110.226 87.24L109.126 86.14L107.746 87.52H104.286L103.146 86.38V84.72H110.226V81.3L108.166 79.24ZM103.146 83.26V81.86L104.286 80.72H107.406L108.546 81.86V83.26H103.146ZM116.912 79.24L114.852 81.3L114.772 79.24H113.252V89H114.932V82.8L116.812 80.92H118.932V79.24H116.912ZM128.756 79.24H120.916V80.74H126.456L120.616 87.74V89H128.756V87.5H122.916L128.756 80.5V79.24ZM137.854 79.24H133.214L131.154 81.3V86.94L133.214 89H137.854L139.914 86.94V81.3L137.854 79.24ZM137.114 87.5H133.954L132.834 86.38V81.86L133.954 80.74H137.114L138.234 81.86V86.38L137.114 87.5ZM149.416 79.24H144.776L142.716 81.3V86.94L144.776 89H149.716L151.476 87.24L150.376 86.14L148.996 87.52H145.536L144.396 86.38V84.72H151.476V81.3L149.416 79.24ZM144.396 83.26V81.86L145.536 80.72H148.656L149.796 81.86V83.26H144.396ZM163.062 89L158.102 83.98L162.762 79.24H160.622L156.182 83.78V74.6H154.502V89H156.182V84.32L160.782 89H163.062ZM171.428 79.24H166.788L164.728 81.3V86.94L166.788 89H171.728L173.488 87.24L172.388 86.14L171.008 87.52H167.548L166.408 86.38V84.72H173.488V81.3L171.428 79.24ZM166.408 83.26V81.86L167.548 80.72H170.668L171.808 81.86V83.26H166.408ZM183.214 79.24H179.974L178.114 81.1L178.034 79.24H176.514V89H178.194V82.6L180.054 80.74H182.394L183.254 81.6V89H184.934V80.96L183.214 79.24ZM199.885 79.24H195.245L193.185 81.3V86.94L195.245 89H200.185L201.945 87.24L200.845 86.14L199.465 87.52H196.005L194.865 86.38V84.72H201.945V81.3L199.885 79.24ZM194.865 83.26V81.86L196.005 80.72H199.125L200.265 81.86V83.26H194.865ZM211.671 79.24H208.431L206.571 81.1L206.491 79.24H204.971V89H206.651V82.6L208.511 80.74H210.851L211.711 81.6V89H213.391V80.96L211.671 79.24ZM228.582 79.24H225.562L223.682 81.12V74.6H222.002V89H227.922L230.642 86.28V81.3L228.582 79.24ZM227.242 87.5H223.682V82.7L225.642 80.74H227.762L228.962 81.94V85.78L227.242 87.5ZM240.061 79.24H235.421L233.361 81.3V86.94L235.421 89H240.361L242.121 87.24L241.021 86.14L239.641 87.52H236.181L235.041 86.38V84.72H242.121V81.3L240.061 79.24ZM235.041 83.26V81.86L236.181 80.72H239.301L240.441 81.86V83.26H235.041ZM253.347 79.24H247.427L244.707 81.96V86.94L246.767 89H249.807L251.667 87.14V90.36L250.307 91.72H247.147L246.107 90.68L245.007 91.78L246.427 93.2H251.007L253.347 90.86V79.24ZM249.727 87.5H247.587L246.387 86.3V82.46L248.107 80.74H251.667V85.56L249.727 87.5ZM260.525 79.24L258.465 81.3L258.385 79.24H256.865V89H258.545V82.8L260.425 80.92H262.545V79.24H260.525ZM265.049 76.94H266.729V74.76H265.049V76.94ZM265.049 89H266.729V79.24H265.049V89ZM270.244 74.76V76.94H271.924V74.76H270.244ZM270.244 90.94L269.484 91.7H268.204V93.2H270.164L271.924 91.44V79.24H270.244V90.94ZM282.02 79.24H278.9L277.04 81.1L276.96 79.24H275.44V93.2H277.12V89H281.36L284.08 86.28V81.3L282.02 79.24ZM280.68 87.5H277.12V82.6L278.98 80.74H281.2L282.4 81.94V85.78L280.68 87.5ZM293.498 79.24H288.858L286.798 81.3V86.94L288.858 89H293.798L295.558 87.24L294.458 86.14L293.078 87.52H289.618L288.478 86.38V84.72H295.558V81.3L293.498 79.24ZM288.478 83.26V81.86L289.618 80.72H292.738L293.878 81.86V83.26H288.478ZM305.284 79.24H302.044L300.184 81.1L300.104 79.24H298.584V89H300.264V82.6L302.124 80.74H304.464L305.324 81.6V89H307.004V80.96L305.284 79.24Z" fill="#090940"/>
<path d="M28.5 53L53.1817 67.25V95.75L28.5 110L3.81828 95.75V67.25L28.5 53Z" fill="#E0DEDC"/>
<path d="M42.9748 68.575H41.3998V67.525C41.3998 67.3858 41.3445 67.2522 41.2461 67.1538C41.1476 67.0553 41.014 67 40.8748 67H31.4248C30.5954 67.0023 29.8161 67.398 29.3248 68.0662C28.8336 67.398 28.0543 67.0024 27.2248 67H17.7748C17.4849 67 17.2498 67.2351 17.2498 67.525V68.575H15.6748C15.3849 68.575 15.1498 68.8101 15.1498 69.1V78.025H16.1998V69.625H17.2498V76.975H18.2998V68.05H27.2248C27.6425 68.05 28.0433 68.2159 28.3385 68.5113C28.6338 68.8066 28.7998 69.2074 28.7998 69.625V76.45H29.8498V69.625C29.8498 69.2073 30.0157 68.8065 30.311 68.5113C30.6064 68.216 31.0072 68.05 31.4248 68.05H40.3498V83.8H37.7248V84.85H40.8748C41.014 84.85 41.1476 84.7947 41.246 84.6963C41.3444 84.5978 41.3998 84.4642 41.3998 84.325V69.625H42.4498V85.9H38.2498V86.95H42.9748C43.114 86.95 43.2476 86.8947 43.346 86.7963C43.4444 86.6978 43.4998 86.5642 43.4998 86.425V69.1C43.4998 68.9608 43.4444 68.8272 43.346 68.7288C43.2476 68.6303 43.114 68.575 42.9748 68.575H42.9748Z" fill="#090940"/>
<path d="M16.7248 94.2998H24.862L27.8545 98.2898C27.9537 98.4219 28.1093 98.4998 28.2745 98.4998H32.4745C33.7273 98.4981 34.9282 97.9998 35.8139 97.1141C36.6995 96.2284 37.1978 95.0275 37.1995 93.7748V87.4748C37.1967 84.8301 36.1448 82.2946 34.2748 80.4248C32.4047 78.5547 29.8692 77.5028 27.2248 77.5H21.9748C19.3301 77.5028 16.7946 78.5547 14.9248 80.4248C13.0547 82.2948 12.0028 84.8303 12 87.4748V89.5748C12.0016 90.8275 12.4999 92.0285 13.3856 92.9141C14.2714 93.7998 15.4723 94.2981 16.725 94.2998H16.7248ZM28.5376 97.4498L26.1751 94.2998H28.5376L30.9001 97.4498H28.5376ZM35.7916 95.3498H30.6377L29.8502 94.2998H36.113C36.0596 94.664 35.9511 95.0179 35.7917 95.3498H35.7916ZM32.2127 97.4498L31.4252 96.3998H35.0398C34.3559 97.0727 33.4348 97.4495 32.4752 97.4498H32.2127ZM13.0499 87.4748C13.0518 87.1237 13.0743 86.7731 13.1172 86.4248H14.6249V85.3748H13.3124C13.701 83.7852 14.5186 82.3326 15.6757 81.1755C16.8328 80.0184 18.2854 79.2009 19.8749 78.8123V81.1748H20.9249V78.617C21.2732 78.5741 21.6238 78.5516 21.9749 78.5498H24.0749V82.2248C24.0749 82.6424 23.909 83.0432 23.6137 83.3385C23.3184 83.6337 22.9176 83.7997 22.5 83.7997H19.35C19.1086 83.8032 18.869 83.8405 18.6382 83.9106C18.0825 83.3085 17.7743 82.5191 17.775 81.6997H16.725C16.7226 82.6878 17.0611 83.6464 17.6831 84.414C17.0794 84.9073 16.7278 85.6449 16.725 86.4247V89.0942C15.9881 89.2034 15.3059 89.5468 14.7787 90.0734L15.521 90.8157H15.5212C15.9799 90.358 16.6017 90.1008 17.2499 90.1008C17.8982 90.1008 18.52 90.358 18.9786 90.8157L19.7209 90.0734H19.7211C19.194 89.5468 18.5118 89.2034 17.7748 89.0942V86.4247C17.7748 86.0071 17.9408 85.6062 18.2361 85.311C18.5314 85.0157 18.9322 84.8497 19.3498 84.8497H19.91C20.0236 85.8093 20.4577 86.7022 21.1421 87.3845L21.3411 87.5835L22.0833 86.8412L21.8843 86.6422L21.8846 86.642C21.398 86.1561 21.0779 85.5287 20.97 84.8497H22.4998C23.1957 84.8488 23.8629 84.572 24.3551 84.0801C24.8471 83.5879 25.1238 82.9206 25.1248 82.2247V78.5497H27.2248C29.1525 78.5504 31.0278 79.1793 32.5662 80.341L31.0538 81.8535L31.796 82.5957L33.371 81.0207V81.021C34.2023 81.8118 34.8738 82.7551 35.3487 83.7997H30.8998C30.4821 83.7997 30.0813 83.6337 29.7861 83.3384C29.4908 83.0431 29.3248 82.6423 29.3248 82.2247V81.1747H28.2748V82.2247C28.2758 82.9206 28.5526 83.5878 29.0445 84.08C29.5367 84.572 30.204 84.8487 30.8998 84.8497H35.7544C36.0169 85.7 36.1503 86.5848 36.1498 87.4747V93.2497H27.7498V91.1497H26.6998V93.2497H23.5498C23.1322 93.2497 22.7314 93.0838 22.4361 92.7885C22.1408 92.4931 21.9749 92.0923 21.9749 91.6747V90.6247C21.9749 90.2071 22.1408 89.8063 22.4361 89.511C22.7314 89.2158 23.1322 89.0498 23.5498 89.0498H30.5998C30.7086 89.7866 31.0517 90.4691 31.5784 90.996L32.3209 90.2535C31.8631 89.7946 31.6063 89.1728 31.6063 88.5248C31.6063 87.8768 31.8631 87.255 32.3209 86.7961L31.5784 86.0536C31.0517 86.5805 30.7086 87.263 30.5998 87.9999H27.2923C26.8946 87.5339 26.6869 86.9356 26.7101 86.3234C26.7333 85.7115 26.986 85.1304 27.4177 84.6962L26.6734 83.9537C26.154 84.4747 25.8118 85.1459 25.6958 85.8723C25.5795 86.5986 25.6953 87.3432 26.0265 87.9999H23.5496C22.8537 88.0009 22.1865 88.2777 21.6943 88.7696C21.2023 89.2618 20.9256 89.9291 20.9246 90.6249V91.6749C20.9265 92.2447 21.1159 92.7983 21.4632 93.2499H16.7246C15.7503 93.2488 14.8161 92.8614 14.1273 92.1723C13.4382 91.4835 13.0508 90.5492 13.0496 89.5749L13.0499 87.4748Z" fill="#090940"/>
<path d="M31.4248 70.15H38.7748V71.2H31.4248V70.15Z" fill="#090940"/>
<path d="M31.4248 72.775H35.6248V73.825H31.4248V72.775Z" fill="#090940"/>
<path d="M36.6748 72.775H38.7748V73.825H36.6748V72.775Z" fill="#090940"/>
<path d="M31.4248 75.4H38.7748V76.45H31.4248V75.4Z" fill="#090940"/>
<path d="M34.0498 78.025H38.7748V79.075H34.0498V78.025Z" fill="#090940"/>
<path d="M36.6748 80.65H38.7748V81.7H36.6748V80.65Z" fill="#090940"/>
<path d="M19.875 70.1499H27.225V71.1999H19.875V70.1499Z" fill="#090940"/>
<path d="M19.875 72.7749H25.125V73.8249H19.875V72.7749Z" fill="#090940"/>
<path d="M26.1748 72.775H27.2248V73.825H26.1748V72.775Z" fill="#090940"/>
<path d="M19.875 75.3999H21.975V76.4499H19.875V75.3999Z" fill="#090940"/>
<path d="M23.0249 75.4H27.2249V76.45H23.0249V75.4Z" fill="#090940"/>
<path d="M405.76 86.42V74.4H404V88H413.52V86.42H405.76ZM422.541 78.24H417.901L415.841 80.3V85.94L417.901 88H422.841L424.601 86.24L423.501 85.14L422.121 86.52H418.661L417.521 85.38V83.72H424.601V80.3L422.541 78.24ZM417.521 82.26V80.86L418.661 79.72H421.781L422.921 80.86V82.26H417.521ZM431.287 78.24L429.227 80.3L429.147 78.24H427.627V88H429.307V81.8L431.187 79.92H433.307V78.24H431.287ZM442.151 78.24H437.511L435.451 80.3V85.94L437.511 88H442.451L444.211 86.24L443.111 85.14L441.731 86.52H438.271L437.131 85.38V83.72H444.211V80.3L442.151 78.24ZM437.131 82.26V80.86L438.271 79.72H441.391L442.531 80.86V82.26H437.131ZM453.937 78.24H450.697L448.837 80.1L448.757 78.24H447.237V88H448.917V81.6L450.777 79.74H453.117L453.977 80.6V88H455.657V79.96L453.937 78.24ZM470.608 78.24H465.968L463.908 80.3V85.94L465.968 88H470.608L472.668 85.94V80.3L470.608 78.24ZM469.868 86.5H466.708L465.588 85.38V80.86L466.708 79.74H469.868L470.988 80.86V85.38L469.868 86.5ZM482.412 78.24L479.452 85.76L476.492 78.24H474.692L478.632 88H480.192L484.132 78.24H482.412ZM492.854 78.24H488.214L486.154 80.3V85.94L488.214 88H493.154L494.914 86.24L493.814 85.14L492.434 86.52H488.974L487.834 85.38V83.72H494.914V80.3L492.854 78.24ZM487.834 82.26V80.86L488.974 79.72H492.094L493.234 80.86V82.26H487.834ZM501.6 78.24L499.54 80.3L499.46 78.24H497.94V88H499.62V81.8L501.5 79.92H503.62V78.24H501.6ZM511.358 73.76V75.94H513.038V73.76H511.358ZM511.358 89.94L510.598 90.7H509.318V92.2H511.278L513.038 90.44V78.24H511.358V89.94ZM522.893 78.24H518.253L516.193 80.3V85.94L518.253 88H523.193L524.953 86.24L523.853 85.14L522.473 86.52H519.013L517.873 85.38V83.72H524.953V80.3L522.893 78.24ZM517.873 82.26V80.86L519.013 79.72H522.133L523.273 80.86V82.26H517.873ZM535.299 78.24H527.459V79.74H532.999L527.159 86.74V88H535.299V86.5H529.459L535.299 79.5V78.24ZM544.397 78.24H539.757L537.697 80.3V85.94L539.757 88H544.697L546.457 86.24L545.357 85.14L543.977 86.52H540.517L539.377 85.38V83.72H546.457V80.3L544.397 78.24ZM539.377 82.26V80.86L540.517 79.72H543.637L544.777 80.86V82.26H539.377ZM551.843 86.5L551.023 85.68V73.6H549.343V86.24L551.103 88H553.063V86.5H551.843ZM558.777 75.1H561.017V73.6H558.037L556.157 75.48V78.24H553.697V79.74H556.157V88H557.837V79.74H561.017V78.24H557.837V76.04L558.777 75.1ZM575.1 78.24H570.46L568.4 80.3V85.94L570.46 88H575.4L577.16 86.24L576.06 85.14L574.68 86.52H571.22L570.08 85.38V83.72H577.16V80.3L575.1 78.24ZM570.08 82.26V80.86L571.22 79.72H574.34L575.48 80.86V82.26H570.08ZM586.886 78.24H583.646L581.786 80.1L581.706 78.24H580.186V88H581.866V81.6L583.726 79.74H586.066L586.926 80.6V88H588.606V79.96L586.886 78.24ZM600.877 78.24L598.817 80.3L598.737 78.24H597.217V88H598.897V81.8L600.777 79.92H602.897V78.24H600.877ZM611.741 78.24H607.101L605.041 80.3V85.94L607.101 88H612.041L613.801 86.24L612.701 85.14L611.321 86.52H607.861L606.721 85.38V83.72H613.801V80.3L611.741 78.24ZM606.721 82.26V80.86L607.861 79.72H610.981L612.121 80.86V82.26H606.721ZM618.266 75.48V78.24H615.806V79.74H618.266V88H619.946V79.74H623.126V78.24H619.946V76.04L620.886 75.1H623.126V73.6H620.146L618.266 75.48ZM627.986 86.5L627.166 85.68V73.6H625.486V86.24L627.246 88H629.206V86.5H627.986ZM638.049 78.24H633.409L631.349 80.3V85.94L633.409 88H638.349L640.109 86.24L639.009 85.14L637.629 86.52H634.169L633.029 85.38V83.72H640.109V80.3L638.049 78.24ZM633.029 82.26V80.86L634.169 79.72H637.289L638.429 80.86V82.26H633.029ZM650.115 85.14L648.755 86.5H645.575L644.455 85.38V80.86L645.575 79.74H648.655L650.015 81.1L651.115 80L649.355 78.24H644.835L642.775 80.3V85.94L644.835 88H649.455L651.215 86.24L650.115 85.14ZM660.138 79.74V78.24H656.958V74.4H655.678L655.378 78.24H652.818V79.74H655.278V86.12L657.158 88H660.138V86.5H657.978L656.958 85.48V79.74H660.138ZM669.241 78.24H664.601L662.541 80.3V85.94L664.601 88H669.541L671.301 86.24L670.201 85.14L668.821 86.52H665.361L664.221 85.38V83.72H671.301V80.3L669.241 78.24ZM664.221 82.26V80.86L665.361 79.72H668.481L669.621 80.86V82.26H664.221ZM677.986 78.24L675.926 80.3L675.846 78.24H674.326V88H676.006V81.8L677.886 79.92H680.006V78.24H677.986ZM688.85 78.24H684.21L682.15 80.3V85.94L684.21 88H689.15L690.91 86.24L689.81 85.14L688.43 86.52H684.97L683.83 85.38V83.72H690.91V80.3L688.85 78.24ZM683.83 82.26V80.86L684.97 79.72H688.09L689.23 80.86V82.26H683.83ZM700.636 78.24H697.396L695.536 80.1L695.456 78.24H693.936V88H695.616V81.6L697.476 79.74H699.816L700.676 80.6V88H702.356V79.96L700.636 78.24Z" fill="#090940"/>
<path d="M368.5 52L393.182 66.25V94.75L368.5 109L343.818 94.75V66.25L368.5 52Z" fill="#E0DEDC"/>
<path d="M376.781 92.8862H375.574C375.245 92.8862 375.026 93.1056 375.026 93.4346C375.026 93.7636 375.245 93.983 375.574 93.983H376.781C377.11 93.983 377.329 93.7636 377.329 93.4346C377.329 93.1056 377.11 92.8862 376.781 92.8862Z" fill="#090940"/>
<path d="M384.896 93.1053L381.606 88.4441C381.551 88.3344 381.387 88.2796 381.277 88.2248L375.958 87.0184C373.106 86.4151 370.145 87.1829 368.006 89.1022C367.403 88.5538 366.745 88.1151 366.087 87.7861C365.813 87.6764 365.484 87.7861 365.374 88.0054C365.264 88.2796 365.319 88.6086 365.593 88.7183C366.306 89.0473 366.91 89.5409 367.513 90.0344V93.9278H365.868C365.539 93.9278 365.319 93.7085 365.319 93.3794C365.319 93.0504 365.1 92.8311 364.771 92.8311H363.126V91.515H365.868C366.197 91.515 366.416 91.2956 366.416 90.9666C366.416 90.6376 366.197 90.4182 365.868 90.4182H354.352L355.174 89.2667L360.274 88.1151C361.316 87.8957 362.358 87.8957 363.4 88.0603C363.674 88.1151 364.003 87.8957 364.058 87.6216C364.113 87.3474 363.894 87.0184 363.619 86.9635C362.468 86.7442 361.261 86.799 360.11 87.0184L354.736 88.2248C354.626 88.2796 354.462 88.3344 354.407 88.4441L351.117 93.1053C350.788 93.544 351.226 93.9826 351.555 93.9278H357.587V96.4503C357.642 97.1632 358.3 96.9987 358.355 96.9438L359.178 96.56C359.452 96.4503 359.561 96.1213 359.397 95.8471C359.287 95.5729 358.958 95.4632 358.684 95.6278V91.515H361.974V95.5729L360.548 94.86C360.274 94.7504 359.945 94.86 359.836 95.0794C359.726 95.3536 359.836 95.6826 360.055 95.7923L362.248 96.889C362.797 97.1084 363.071 96.6697 363.071 96.4503V93.9826H364.277C364.497 94.6407 365.1 95.0794 365.813 95.0794H370.2C370.913 95.0794 371.516 94.6407 371.735 93.9826H373.49C373.819 93.9826 374.038 93.7633 374.038 93.4343C374.038 93.1053 373.819 92.8859 373.49 92.8859H371.297C370.968 92.8859 370.748 93.1053 370.748 93.4343C370.748 93.7633 370.529 93.9826 370.2 93.9826H368.555V90.0892C370.474 88.2796 373.106 87.5119 375.738 88.0603L380.838 89.2118L381.66 90.3634H370.199C369.87 90.3634 369.651 90.5828 369.651 90.9118C369.651 91.2408 369.87 91.4601 370.199 91.4601L382.427 91.4053L383.415 92.8311H378.973C378.644 92.8311 378.424 93.0504 378.424 93.3794C378.424 93.7085 378.644 93.9278 378.973 93.9278H384.456C385.115 93.9278 385.005 93.2698 384.895 93.1053H384.896ZM357.588 92.8859H352.597L353.585 91.4601L357.588 91.515V92.8859Z" fill="#090940"/>
<path d="M357.039 86.5251C357.368 86.5251 357.588 86.3057 357.588 85.9767V83.4542C357.588 79.6156 360.439 76.5447 364.168 76.2709V76.8192C364.168 78.9579 365.868 80.6578 368.007 80.6578C368.336 80.6578 368.555 80.4385 368.555 80.1094C368.555 79.7804 368.336 79.5611 368.007 79.5611C366.581 79.5611 365.374 78.4095 365.265 76.9837L365.758 77.4773C366.362 78.0256 367.129 78.3547 368.007 78.3547C368.884 78.3547 369.652 78.0256 370.255 77.4224L370.749 76.9289C370.694 77.6418 370.365 78.2998 369.871 78.7934C369.652 79.0127 369.652 79.3417 369.816 79.5611C369.981 79.7804 370.365 79.7804 370.584 79.6159C371.407 78.903 371.845 77.8611 371.845 76.7644V76.2709C375.519 76.5999 378.426 79.7256 378.426 83.4542V85.9767C378.426 86.3057 378.645 86.5251 378.974 86.5251C379.303 86.5251 379.522 86.3057 379.522 85.9767V83.4542C379.522 79.2866 376.452 75.8322 372.448 75.2286C373.49 74.1319 374.038 72.7061 374.038 71.1707V69.0321C374.038 67.716 373.6 66.4547 372.832 65.4128C372.667 65.1935 372.284 65.1386 372.064 65.3032C371.845 65.4677 371.79 65.8515 371.955 66.0709C372.229 66.4547 372.448 66.8386 372.613 67.2773C372.064 67.9902 370.913 68.4837 369.651 68.4837C368.39 68.4837 367.239 67.9902 366.635 67.1676C366.471 66.9483 366.197 66.8934 365.923 67.0031C365.1 67.5515 363.619 67.387 363.4 67.3321C364.058 65.4677 365.868 64.0967 368.006 64.0967C368.719 64.0967 369.377 64.2613 370.035 64.5354C370.309 64.6451 370.639 64.5354 370.748 64.2613C370.858 63.9871 370.748 63.658 370.474 63.5484C369.706 63.2193 368.829 63 368.006 63C364.661 63 361.974 65.687 361.974 69.0321V71.1707C361.974 72.7061 362.523 74.1319 363.565 75.2286C359.507 75.8319 356.49 79.2317 356.49 83.4542V85.9767C356.49 86.2509 356.71 86.5251 357.039 86.5251H357.039ZM363.071 71.1707V69.0321C363.071 68.8127 363.071 68.5934 363.126 68.374C363.455 68.4289 365.045 68.5934 366.033 68.1547C366.855 69.0321 368.171 69.5804 369.652 69.5804C370.913 69.5804 372.119 69.1966 372.887 68.5385C372.887 68.703 372.942 68.8676 372.942 69.0321V71.1707C372.942 72.4868 372.448 73.6932 371.516 74.6254L369.487 76.6544C368.72 77.4221 367.294 77.4221 366.526 76.6544L364.497 74.6254C363.565 73.6932 363.071 72.4868 363.071 71.1707Z" fill="#090940"/>
<path d="M372.394 82.7416C372.065 82.7416 371.845 82.9609 371.845 83.2899C371.845 83.619 372.065 83.8383 372.394 83.8383H376.781C377.11 83.8383 377.329 83.619 377.329 83.2899C377.329 82.9609 377.11 82.7416 376.781 82.7416H372.394Z" fill="#090940"/>
<path d="M362.304 77.751C360.494 78.5187 359.178 80.1638 358.794 82.0831C358.739 82.3573 358.959 82.6863 359.233 82.7412C359.617 82.7412 359.836 82.5767 359.891 82.3025C360.165 80.7122 361.262 79.3961 362.742 78.7381C363.017 78.6284 363.126 78.2994 363.017 78.0252C362.907 77.751 362.578 77.6413 362.304 77.751Z" fill="#090940"/>
<path d="M413.22 151.52L411.32 153.42H407.04L405.4 151.78V144.62L407.04 142.98H411.18L413.08 144.88L414.26 143.7L411.96 141.4H406.26L403.64 144.02V152.38L406.26 155H412.1L414.4 152.7L413.22 151.52ZM423.577 145.24H418.937L416.877 147.3V152.94L418.937 155H423.577L425.637 152.94V147.3L423.577 145.24ZM422.837 153.5H419.677L418.557 152.38V147.86L419.677 146.74H422.837L423.957 147.86V152.38L422.837 153.5ZM440.999 145.24H437.939L436.419 146.76L434.879 145.24H431.999L430.379 146.86L430.319 145.24H428.799V155H430.479V148.34L432.079 146.74H434.059L434.919 147.6V155H436.599V148.16L438.019 146.74H440.179L441.039 147.6V155H442.719V146.96L440.999 145.24ZM458.304 145.24H455.244L453.724 146.76L452.184 145.24H449.304L447.684 146.86L447.624 145.24H446.104V155H447.784V148.34L449.384 146.74H451.364L452.224 147.6V155H453.904V148.16L455.324 146.74H457.484L458.344 147.6V155H460.024V146.96L458.304 145.24ZM470.008 145.24V151.64L468.148 153.5H465.808L464.948 152.64V145.24H463.268V153.28L464.988 155H468.228L470.088 153.14L470.168 155H471.688V145.24H470.008ZM481.905 145.24H478.665L476.805 147.1L476.725 145.24H475.205V155H476.885V148.6L478.745 146.74H481.085L481.945 147.6V155H483.625V146.96L481.905 145.24ZM487.002 142.94H488.682V140.76H487.002V142.94ZM487.002 155H488.682V145.24H487.002V155ZM499.178 152.14L497.818 153.5H494.638L493.518 152.38V147.86L494.638 146.74H497.718L499.078 148.1L500.178 147L498.418 145.24H493.898L491.838 147.3V152.94L493.898 155H498.518L500.278 153.24L499.178 152.14ZM509.182 145.24H504.542L502.482 147.3V152.94L504.542 155H509.482L511.242 153.24L510.142 152.14L508.762 153.52H505.302L504.162 152.38V150.72H511.242V147.3L509.182 145.24ZM504.162 149.26V147.86L505.302 146.72H508.422L509.562 147.86V149.26H504.162ZM517.928 145.24L515.868 147.3L515.788 145.24H514.268V155H515.948V148.8L517.828 146.92H519.948V145.24H517.928ZM528.791 145.24H524.151L522.091 147.3V152.94L524.151 155H529.091L530.851 153.24L529.751 152.14L528.371 153.52H524.911L523.771 152.38V150.72H530.851V147.3L528.791 145.24ZM523.771 149.26V147.86L524.911 146.72H528.031L529.171 147.86V149.26H523.771ZM540.577 145.24H537.337L535.477 147.1L535.397 145.24H533.877V155H535.557V148.6L537.417 146.74H539.757L540.617 147.6V155H542.297V146.96L540.577 145.24ZM557.248 145.24H552.608L550.548 147.3V152.94L552.608 155H557.548L559.308 153.24L558.208 152.14L556.828 153.52H553.368L552.228 152.38V150.72H559.308V147.3L557.248 145.24ZM552.228 149.26V147.86L553.368 146.72H556.488L557.628 147.86V149.26H552.228ZM569.034 145.24H565.794L563.934 147.1L563.854 145.24H562.334V155H564.014V148.6L565.874 146.74H568.214L569.074 147.6V155H570.754V146.96L569.034 145.24ZM585.945 145.24H582.825L580.965 147.1L580.885 145.24H579.365V159.2H581.045V155H585.285L588.005 152.28V147.3L585.945 145.24ZM584.605 153.5H581.045V148.6L582.905 146.74H585.125L586.325 147.94V151.78L584.605 153.5ZM594.744 145.24L592.684 147.3L592.604 145.24H591.084V155H592.764V148.8L594.644 146.92H596.764V145.24H594.744ZM605.608 145.24H600.968L598.908 147.3V152.94L600.968 155H605.908L607.668 153.24L606.568 152.14L605.188 153.52H601.728L600.588 152.38V150.72H607.668V147.3L605.608 145.24ZM600.588 149.26V147.86L601.728 146.72H604.848L605.988 147.86V149.26H600.588ZM617.154 149.46L612.514 149.14L611.934 148.56V147.46L612.674 146.72H616.134L617.254 147.84L618.354 146.74L616.854 145.24H611.914L610.254 146.9V149.12L611.714 150.58L616.354 150.9L616.934 151.48V152.78L616.194 153.52H612.214L611.014 152.32L609.914 153.42L611.494 155H616.954L618.614 153.34V150.92L617.154 149.46ZM627.795 145.24H623.155L621.095 147.3V152.94L623.155 155H628.095L629.855 153.24L628.755 152.14L627.375 153.52H623.915L622.775 152.38V150.72H629.855V147.3L627.795 145.24ZM622.775 149.26V147.86L623.915 146.72H627.035L628.175 147.86V149.26H622.775ZM639.581 145.24H636.341L634.481 147.1L634.401 145.24H632.881V155H634.561V148.6L636.421 146.74H638.761L639.621 147.6V155H641.301V146.96L639.581 145.24ZM650.978 146.74V145.24H647.798V141.4H646.518L646.218 145.24H643.658V146.74H646.118V153.12L647.998 155H650.978V153.5H648.818L647.798 152.48V146.74H650.978ZM660.08 145.24H655.44L653.38 147.3V152.94L655.44 155H660.38L662.14 153.24L661.04 152.14L659.66 153.52H656.2L655.06 152.38V150.72H662.14V147.3L660.08 145.24ZM655.06 149.26V147.86L656.2 146.72H659.32L660.46 147.86V149.26H655.06ZM668.826 145.24L666.766 147.3L666.686 145.24H665.166V155H666.846V148.8L668.726 146.92H670.846V145.24H668.826ZM679.69 145.24H675.05L672.99 147.3V152.94L675.05 155H679.99L681.75 153.24L680.65 152.14L679.27 153.52H675.81L674.67 152.38V150.72H681.75V147.3L679.69 145.24ZM674.67 149.26V147.86L675.81 146.72H678.93L680.07 147.86V149.26H674.67ZM691.476 145.24H688.236L686.376 147.1L686.296 145.24H684.776V155H686.456V148.6L688.316 146.74H690.656L691.516 147.6V155H693.196V146.96L691.476 145.24Z" fill="#090940"/>
<path d="M368.5 120L393.182 134.25V162.75L368.5 177L343.818 162.75V134.25L368.5 120Z" fill="#E0DEDC"/>
<path d="M364.367 150.05C364.367 150.336 364.135 150.567 363.85 150.567C363.565 150.567 363.333 150.336 363.333 150.05C363.333 149.765 363.565 149.534 363.85 149.534C364.135 149.534 364.367 149.765 364.367 150.05Z" fill="#090940"/>
<path d="M361.783 147.983C361.783 148.269 361.552 148.5 361.267 148.5C360.981 148.5 360.75 148.269 360.75 147.983C360.75 147.698 360.981 147.467 361.267 147.467C361.552 147.467 361.783 147.698 361.783 147.983Z" fill="#090940"/>
<path d="M362.92 147.674L361.37 149.74C361.199 149.969 361.245 150.293 361.473 150.464C361.566 150.533 361.676 150.567 361.783 150.567C361.94 150.567 362.095 150.496 362.197 150.36L363.747 148.294C363.918 148.065 363.872 147.741 363.644 147.57C363.415 147.399 363.091 147.446 362.92 147.674Z" fill="#090940"/>
<path d="M359.717 142.817C358.862 142.817 358.167 143.512 358.167 144.367C358.167 145.222 358.862 145.917 359.717 145.917C360.571 145.917 361.267 145.222 361.267 144.367C361.267 143.512 360.571 142.817 359.717 142.817ZM359.717 144.884C359.432 144.884 359.2 144.652 359.2 144.367C359.2 144.082 359.432 143.85 359.717 143.85C360.001 143.85 360.233 144.082 360.233 144.367C360.233 144.652 360.001 144.884 359.717 144.884Z" fill="#090940"/>
<path d="M374.7 137.65C374.7 137.365 374.469 137.133 374.183 137.133H372.117C371.831 137.133 371.6 137.365 371.6 137.65V138.167H370.05C369.893 138.167 369.745 138.238 369.647 138.36L369.296 138.799C368.115 137.765 366.573 137.133 364.883 137.133C364.598 137.133 364.367 137.365 364.367 137.65V143.85C364.367 144.135 364.598 144.367 364.883 144.367C365.168 144.367 365.4 144.135 365.4 143.85V138.19C366.643 138.303 367.768 138.82 368.651 139.605L367.58 140.944C367.401 141.167 367.438 141.493 367.66 141.67C367.756 141.746 367.87 141.783 367.983 141.783C368.134 141.783 368.285 141.717 368.386 141.59L369.364 140.367C370.015 141.202 370.442 142.221 370.543 143.333H366.95C366.665 143.333 366.433 143.565 366.433 143.85C366.433 144.135 366.665 144.367 366.95 144.367H371.083C371.369 144.367 371.6 144.135 371.6 143.85C371.6 142.21 371.008 140.707 370.027 139.539L370.298 139.2H371.6V139.717C371.6 140.002 371.831 140.233 372.117 140.233H374.183C374.469 140.233 374.7 140.002 374.7 139.717L374.7 137.65ZM373.667 139.2H372.633V138.167H373.667V139.2Z" fill="#090940"/>
<path d="M374.183 141.267H372.633C372.348 141.267 372.117 141.499 372.117 141.784C372.117 142.069 372.348 142.3 372.633 142.3H374.183C374.469 142.3 374.7 142.069 374.7 141.784C374.7 141.499 374.469 141.267 374.183 141.267Z" fill="#090940"/>
<path d="M374.184 143.333H373.667C373.381 143.333 373.15 143.565 373.15 143.85C373.15 144.135 373.381 144.367 373.667 144.367H374.184C374.47 144.367 374.7 144.135 374.7 143.85C374.7 143.565 374.47 143.333 374.184 143.333Z" fill="#090940"/>
<path d="M372.634 145.917H371.084C370.798 145.917 370.567 146.149 370.567 146.434C370.567 146.719 370.798 146.95 371.084 146.95H372.634C372.919 146.95 373.15 146.719 373.15 146.434C373.15 146.149 372.919 145.917 372.634 145.917Z" fill="#090940"/>
<path d="M372.634 147.983H371.6C371.314 147.983 371.083 148.215 371.083 148.5C371.083 148.785 371.314 149.017 371.6 149.017H372.634C372.919 149.017 373.15 148.785 373.15 148.5C373.15 148.215 372.919 147.983 372.634 147.983Z" fill="#090940"/>
<path d="M357.133 137.65C357.133 137.935 356.902 138.167 356.617 138.167C356.331 138.167 356.1 137.935 356.1 137.65C356.1 137.365 356.331 137.133 356.617 137.133C356.902 137.133 357.133 137.365 357.133 137.65Z" fill="#090940"/>
<path d="M359.2 137.65C359.2 137.935 358.968 138.167 358.683 138.167C358.398 138.167 358.167 137.935 358.167 137.65C358.167 137.365 358.398 137.133 358.683 137.133C358.968 137.133 359.2 137.365 359.2 137.65Z" fill="#090940"/>
<path d="M361.267 137.65C361.267 137.935 361.035 138.167 360.75 138.167C360.465 138.167 360.233 137.935 360.233 137.65C360.233 137.365 360.465 137.133 360.75 137.133C361.035 137.133 361.267 137.365 361.267 137.65Z" fill="#090940"/>
<path d="M357.133 152.117C357.133 152.402 356.902 152.633 356.617 152.633C356.331 152.633 356.1 152.402 356.1 152.117C356.1 151.831 356.331 151.6 356.617 151.6C356.902 151.6 357.133 151.831 357.133 152.117Z" fill="#090940"/>
<path d="M371.084 153.229V150.567C371.084 149.712 370.388 149.017 369.534 149.017C369.169 149.017 368.839 149.149 368.574 149.359C369.179 148.352 369.534 147.176 369.534 145.917C369.534 145.632 369.303 145.4 369.017 145.4H363.333V139.717C363.333 139.432 363.102 139.2 362.817 139.2C359.113 139.2 356.1 142.213 356.1 145.917C356.1 147.007 356.37 148.093 356.881 149.057C357.014 149.309 357.326 149.405 357.579 149.272C357.831 149.139 357.928 148.826 357.794 148.574C357.356 147.747 357.133 146.852 357.133 145.917C357.133 142.957 359.407 140.519 362.3 140.257V145.917C362.3 146.202 362.532 146.434 362.817 146.434H368.477C368.215 149.327 365.776 151.6 362.817 151.6C361.382 151.6 360.009 151.058 358.951 150.074C358.743 149.88 358.416 149.891 358.221 150.1C358.027 150.309 358.039 150.636 358.247 150.831C359.497 151.994 361.12 152.634 362.817 152.634C364.939 152.634 366.832 151.641 368.064 150.099C368.016 150.248 367.984 150.403 367.984 150.567V153.667H355.067V136.1H375.734V143.334C375.734 143.619 375.965 143.85 376.25 143.85C376.536 143.85 376.767 143.619 376.767 143.334V136.005C377.367 135.791 377.8 135.223 377.8 134.55C377.8 133.695 377.105 133 376.25 133H372.117C371.831 133 371.6 133.232 371.6 133.517C371.6 133.802 371.831 134.033 372.117 134.033H376.25C376.535 134.033 376.767 134.265 376.767 134.55C376.767 134.835 376.535 135.067 376.25 135.067H354.55C354.265 135.067 354.033 134.835 354.033 134.55C354.033 134.265 354.265 134.033 354.55 134.033H370.05C370.336 134.033 370.567 133.802 370.567 133.517C370.567 133.232 370.336 133 370.05 133H354.55C353.695 133 353 133.695 353 134.55C353 135.223 353.433 135.791 354.033 136.005V153.763C353.433 153.976 353 154.544 353 155.217C353 156.072 353.695 156.767 354.55 156.767H359.2C359.485 156.767 359.717 156.535 359.717 156.25C359.717 155.965 359.485 155.734 359.2 155.734H354.55C354.265 155.734 354.033 155.502 354.033 155.217C354.033 154.932 354.265 154.7 354.55 154.7H368.027C368.094 155.077 368.242 155.429 368.457 155.734H361.266C360.981 155.734 360.75 155.965 360.75 156.25C360.75 156.535 360.981 156.767 361.266 156.767H364.883V159.445C364.283 159.659 363.85 160.228 363.85 160.9C363.85 161.755 364.545 162.45 365.4 162.45C366.254 162.45 366.95 161.755 366.95 160.9C366.95 160.228 366.516 159.659 365.916 159.445V156.767H369.961L372.381 157.576L373.15 158.08V163.484C373.15 163.769 373.381 164 373.666 164C373.952 164 374.183 163.769 374.183 163.484V157.8C374.183 157.626 374.095 157.464 373.95 157.368L373.087 156.804L372.84 155.075L372.766 154.557L373.582 154.693C373.61 154.698 373.638 154.7 373.666 154.7H374.779L375.224 157.369C375.251 157.531 375.353 157.67 375.499 157.745C375.572 157.782 375.653 157.8 375.733 157.8C375.812 157.8 375.892 157.782 375.964 157.746L377.283 157.086V163.484C377.283 163.769 377.514 164 377.8 164C378.086 164 378.317 163.769 378.317 163.484V157.086L379.636 157.745C379.708 157.782 379.787 157.8 379.867 157.8C379.947 157.8 380.027 157.782 380.101 157.744C380.247 157.67 380.349 157.53 380.376 157.369L380.814 154.744C382.033 154.95 382.967 156.007 382.967 157.284V158.834H381.417V158.317C381.417 158.032 381.186 157.8 380.9 157.8C380.614 157.8 380.383 158.032 380.383 158.317V163.484C380.383 163.769 380.614 164 380.9 164C381.186 164 381.417 163.769 381.417 163.484V159.867H382.967V163.484C382.967 163.769 383.198 164 383.483 164C383.769 164 384 163.769 384 163.484V157.284C384 155.289 382.377 153.667 380.383 153.667H380.326C380.998 153.01 381.417 152.095 381.417 151.084V150.567C381.417 150.282 381.186 150.05 380.9 150.05C380.614 150.05 380.383 150.282 380.383 150.567V151.084C380.383 152.508 379.224 153.667 377.8 153.667C376.375 153.667 375.217 152.508 375.217 151.084V148.971C375.804 148.868 376.357 148.59 376.789 148.174C377.494 148.721 378.354 149.017 379.261 149.017H380.9C381.186 149.017 381.417 148.785 381.417 148.5C381.417 146.506 379.794 144.884 377.8 144.884H374.7C374.414 144.884 374.183 145.115 374.183 145.4V151.084C374.183 152.095 374.602 153.01 375.273 153.667H373.709L371.084 153.229ZM375.217 145.917H377.8C379.048 145.917 380.092 146.806 380.332 147.984H379.262C378.457 147.984 377.701 147.671 377.132 147.102C377.035 147.004 376.904 146.95 376.767 146.95C376.629 146.95 376.498 147.004 376.402 147.102L376.099 147.404C375.854 147.649 375.548 147.824 375.217 147.914L375.217 145.917ZM365.4 161.417C365.116 161.417 364.883 161.185 364.883 160.9C364.883 160.616 365.116 160.384 365.4 160.384C365.685 160.384 365.917 160.616 365.917 160.9C365.917 161.185 365.685 161.417 365.4 161.417ZM369.017 150.567C369.017 150.282 369.248 150.05 369.534 150.05C369.819 150.05 370.05 150.282 370.05 150.567V153.667C370.05 153.92 370.233 154.135 370.482 154.177L371.697 154.379L371.978 156.352L370.076 155.715C369.442 155.504 369.017 154.913 369.017 154.246L369.017 150.567ZM378.75 154.57L377.8 155.52L376.85 154.57C377.154 154.652 377.471 154.7 377.8 154.7C378.129 154.7 378.447 154.652 378.75 154.57V154.57ZM376.128 156.509L375.889 155.069L376.928 156.109L376.128 156.509ZM379.472 156.509L378.672 156.109L379.712 155.069L379.472 156.509Z" fill="#090940"/>
<path d="M377.284 150.567C377.284 150.852 377.052 151.084 376.767 151.084C376.482 151.084 376.25 150.852 376.25 150.567C376.25 150.282 376.482 150.05 376.767 150.05C377.052 150.05 377.284 150.282 377.284 150.567Z" fill="#090940"/>
<path d="M379.35 150.567C379.35 150.852 379.119 151.084 378.834 151.084C378.548 151.084 378.317 150.852 378.317 150.567C378.317 150.282 378.548 150.05 378.834 150.05C379.119 150.05 379.35 150.282 379.35 150.567Z" fill="#090940"/>
<path d="M796.22 84.52L794.32 86.42H790.04L788.4 84.78V77.62L790.04 75.98H794.18L796.08 77.88L797.26 76.7L794.96 74.4H789.26L786.64 77.02V85.38L789.26 88H795.1L797.4 85.7L796.22 84.52ZM803.76 78.24L801.7 80.3L801.62 78.24H800.1V88H801.78V81.8L803.66 79.92H805.78V78.24H803.76ZM814.623 78.24H809.983L807.923 80.3V85.94L809.983 88H814.923L816.683 86.24L815.583 85.14L814.203 86.52H810.743L809.603 85.38V83.72H816.683V80.3L814.623 78.24ZM809.603 82.26V80.86L810.743 79.72H813.863L815.003 80.86V82.26H809.603ZM826.029 78.24H820.969L819.289 79.92L820.389 81.02L821.689 79.72H825.189L826.069 80.6V82.22L820.489 82.6L819.029 84.06V86.34L820.689 88H824.289L826.149 86.14L826.229 88H827.749V79.96L826.029 78.24ZM824.189 86.52H821.449L820.709 85.78V84.62L821.289 84.04L826.069 83.7V84.64L824.189 86.52ZM837.435 79.74V78.24H834.255V74.4H832.975L832.675 78.24H830.115V79.74H832.575V86.12L834.455 88H837.435V86.5H835.275L834.255 85.48V79.74H837.435ZM840.198 75.94H841.878V73.76H840.198V75.94ZM840.198 88H841.878V78.24H840.198V88ZM851.733 78.24H847.093L845.033 80.3V85.94L847.093 88H852.033L853.793 86.24L852.693 85.14L851.313 86.52H847.853L846.713 85.38V83.72H853.793V80.3L851.733 78.24ZM846.713 82.26V80.86L847.853 79.72H850.973L852.113 80.86V82.26H846.713ZM860.879 75.1H863.119V73.6H860.139L858.259 75.48V78.24H855.799V79.74H858.259V88H859.939V79.74H863.119V78.24H859.939V76.04L860.879 75.1ZM877.382 73.6V78.24H873.142L870.422 80.96V85.94L872.482 88H875.602L877.462 86.14L877.542 88H879.062V73.6H877.382ZM875.522 86.5H873.302L872.102 85.3V81.46L873.822 79.74H877.382V84.64L875.522 86.5ZM888.92 78.24H884.28L882.22 80.3V85.94L884.28 88H889.22L890.98 86.24L889.88 85.14L888.5 86.52H885.04L883.9 85.38V83.72H890.98V80.3L888.92 78.24ZM883.9 82.26V80.86L885.04 79.72H888.16L889.3 80.86V82.26H883.9ZM900.706 78.24H897.466L895.606 80.1L895.526 78.24H894.006V88H895.686V81.6L897.546 79.74H899.886L900.746 80.6V88H902.426V79.96L900.706 78.24ZM914.363 88L909.403 82.98L914.063 78.24H911.923L907.483 82.78V73.6H905.803V88H907.483V83.32L912.083 88H914.363ZM922.729 78.24H918.089L916.029 80.3V85.94L918.089 88H923.029L924.789 86.24L923.689 85.14L922.309 86.52H918.849L917.709 85.38V83.72H924.789V80.3L922.729 78.24ZM917.709 82.26V80.86L918.849 79.72H921.969L923.109 80.86V82.26H917.709ZM934.515 78.24H931.275L929.415 80.1L929.335 78.24H927.815V88H929.495V81.6L931.355 79.74H933.695L934.555 80.6V88H936.235V79.96L934.515 78.24Z" fill="#090940"/>
<path d="M751.5 53L776.182 67.25V95.75L751.5 110L726.818 95.75V67.25L751.5 53Z" fill="#E0DEDC"/>
<path d="M738.687 85.5973C738.687 85.8328 738.496 86.0236 738.261 86.0236C738.025 86.0236 737.834 85.8328 737.834 85.5973C737.834 85.3617 738.025 85.1709 738.261 85.1709C738.496 85.1709 738.687 85.3617 738.687 85.5973Z" fill="#090940"/>
<path d="M741.245 85.5973C741.245 85.8328 741.054 86.0236 740.818 86.0236C740.583 86.0236 740.392 85.8328 740.392 85.5973C740.392 85.3617 740.583 85.1709 740.818 85.1709C741.054 85.1709 741.245 85.3617 741.245 85.5973Z" fill="#090940"/>
<path d="M742.46 89.7713H742.098C742.645 89.2185 743.039 88.5328 743.241 87.7816C743.696 87.6826 744.097 87.4148 744.363 87.0321C744.629 86.6494 744.741 86.1804 744.675 85.719C744.609 85.2576 744.371 84.8381 744.008 84.5453C744.293 82.9114 744.086 81.6693 743.383 80.8547C742.868 80.2829 742.143 79.9454 741.375 79.92C740.778 79.4794 740.072 79.2121 739.334 79.1477C738.595 79.083 737.853 79.2238 737.19 79.5545C735.284 80.509 734.556 82.1928 734.992 84.5452C734.629 84.8383 734.391 85.2576 734.326 85.7187C734.26 86.1801 734.371 86.6491 734.638 87.0318C734.904 87.4143 735.305 87.6818 735.76 87.7804C735.963 88.5349 736.36 89.2232 736.911 89.7775C736.167 89.8107 735.475 90.1693 735.02 90.7581H734.892C734.4 90.7564 733.928 90.9464 733.574 91.288C733.221 91.6296 733.016 92.0956 733.001 92.5867C732.986 93.078 733.164 93.5554 733.496 93.9172L733.501 95.775C733.501 96.0874 733.596 96.3927 733.772 96.6508C733.948 96.9089 734.198 97.1081 734.489 97.2223V98.2456H735.626V97.2223C735.917 97.1081 736.167 96.9091 736.343 96.651C736.519 96.3932 736.613 96.0879 736.614 95.7754L736.609 93.9182C736.975 93.5205 737.151 92.9845 737.093 92.4475C737.035 91.9107 736.748 91.425 736.306 91.1143C736.524 90.9813 736.774 90.9105 737.029 90.9098H737.193L737.72 91.828C737.96 92.2483 738.342 92.5703 738.797 92.7365C739.251 92.9027 739.75 92.9027 740.205 92.7365C740.66 92.5703 741.041 92.2482 741.281 91.828L741.807 90.9083H742.461V90.908C742.965 90.9088 743.448 91.1095 743.805 91.4663C744.162 91.8229 744.362 92.3067 744.362 92.8109L744.366 98.2455H745.503L745.498 92.8109C745.498 92.0051 745.177 91.2326 744.607 90.6626C744.038 90.0929 743.265 89.7721 742.46 89.771L742.46 89.7713ZM735.058 96.1952C734.946 96.1952 734.839 96.1505 734.761 96.0716C734.682 95.9926 734.638 95.8855 734.638 95.7739L734.635 94.3669H735.474V95.7752C735.474 96.0059 735.288 96.1934 735.058 96.1952L735.058 96.1952ZM735.757 93.1707L735.701 93.2276L734.406 93.2278L734.349 93.171C734.14 92.9532 734.081 92.632 734.199 92.3543C734.318 92.0769 734.59 91.8967 734.892 91.8962H735.214C735.516 91.8967 735.788 92.0767 735.906 92.3541C736.024 92.6315 735.966 92.9525 735.757 93.1702L735.757 93.1707ZM737.7 80.5738C738.198 80.3314 738.754 80.2352 739.305 80.2964C739.855 80.3575 740.377 80.5735 740.81 80.9194C740.923 81.0169 741.07 81.0661 741.22 81.0565C741.716 81.041 742.195 81.2427 742.531 81.609C742.961 82.116 743.092 82.9825 742.925 84.1285C742.897 84.1285 742.871 84.1199 742.843 84.1199V83.6357C742.843 83.3875 742.682 83.168 742.445 83.0933C741.884 82.9284 741.395 82.5787 741.058 82.1008C740.957 81.928 740.772 81.8214 740.572 81.8199H740.568C740.369 81.8199 740.185 81.9231 740.082 82.0929C739.788 82.5767 738.092 82.9764 736.688 83.069C736.389 83.0888 736.156 83.3375 736.157 83.6375V84.1224C736.125 84.1224 736.094 84.1311 736.062 84.1326C735.784 82.385 736.299 81.2731 737.7 80.5737V80.5738ZM740.293 91.2639V91.2641C740.131 91.5489 739.828 91.7245 739.5 91.7245C739.172 91.7245 738.869 91.5489 738.706 91.2641L738.503 90.9083H740.497L740.293 91.2639ZM739.498 89.7711C738.19 89.7711 737.05 88.6711 736.781 87.156H736.782C736.732 86.8578 736.456 86.6518 736.156 86.6888C735.963 86.6944 735.775 86.6213 735.637 86.4863C735.498 86.3515 735.42 86.1663 735.42 85.9729C735.42 85.7792 735.498 85.5942 735.637 85.4592C735.775 85.3245 735.963 85.2514 736.156 85.2567L736.291 85.2539C736.405 85.2539 736.566 85.2443 736.601 85.2437H736.601C736.769 85.28 736.944 85.2384 737.078 85.1303C737.211 85.0224 737.289 84.8595 737.289 84.6877V84.155C738.418 84.0768 739.518 83.7571 740.513 83.2177C740.855 83.5596 741.258 83.8344 741.701 84.0279V84.6879V84.6877C741.693 84.8577 741.763 85.0222 741.892 85.1341C742.017 85.2412 742.185 85.2833 742.346 85.2478C742.422 85.2427 742.585 85.2478 742.696 85.2511L742.833 85.2539H742.833C743.229 85.2529 743.551 85.5729 743.552 85.9688C743.553 86.3647 743.233 86.6865 742.837 86.6878C742.537 86.6515 742.261 86.8558 742.209 87.1532C741.947 88.6711 740.806 89.7711 739.5 89.7711L739.498 89.7711Z" fill="#090940"/>
<path d="M742.396 93.7968L743.532 93.7935L743.546 98.2408L742.409 98.2441L742.396 93.7968Z" fill="#090940"/>
<path d="M739.501 88.3263C739.112 88.3258 738.797 88.0109 738.796 87.6221H738.228C738.221 87.9642 738.351 88.2948 738.591 88.5395C738.83 88.7839 739.158 88.9217 739.5 88.9217C739.843 88.9217 740.171 88.7839 740.41 88.5395C740.649 88.2949 740.78 87.9642 740.773 87.6221H740.205C740.204 88.0106 739.889 88.3258 739.501 88.3263H739.501Z" fill="#090940"/>
<path d="M757.447 63C754.583 63.003 751.838 64.142 749.813 66.167C747.788 68.192 746.649 70.9375 746.646 73.801C746.637 76.6198 747.742 79.3279 749.721 81.3349C749.568 81.6432 749.488 81.9833 749.488 82.3279C749.486 82.9469 749.738 83.5397 750.184 83.9689C750.63 84.3981 751.232 84.6262 751.85 84.6004C752.468 84.5745 753.05 84.2971 753.458 83.8322C754.726 84.3415 756.081 84.6029 757.447 84.6019C760.312 84.6019 763.059 83.4639 765.084 81.4382C767.11 79.4127 768.248 76.6655 768.248 73.801C768.248 70.9366 767.11 68.189 765.084 66.1638C763.059 64.1381 760.312 63.0001 757.447 63.0001L757.447 63ZM757.447 83.4655C756.083 83.466 754.734 83.1754 753.491 82.6128C753.219 82.4904 752.899 82.5993 752.757 82.8622C752.608 83.146 752.346 83.3528 752.035 83.4315C751.724 83.5101 751.395 83.4533 751.128 83.2751C750.862 83.097 750.684 82.814 750.638 82.4968C750.592 82.1796 750.683 81.858 750.888 81.6116C751.078 81.3804 751.056 81.0416 750.838 80.8368C748.883 79.0204 747.775 76.4698 747.783 73.8012C747.783 71.2382 748.801 68.78 750.613 66.9677C752.426 65.1553 754.884 64.1372 757.447 64.1372C760.01 64.1372 762.468 65.1554 764.28 66.9677C766.093 68.7802 767.111 71.2384 767.111 73.8012C767.111 76.364 766.093 78.8224 764.28 80.6347C762.468 82.447 760.01 83.4652 757.447 83.4652L757.447 83.4655Z" fill="#090940"/>
<path d="M749.488 86.0231C749.488 86.4942 749.106 86.8759 748.635 86.8759C748.164 86.8759 747.783 86.4942 747.783 86.0231C747.783 85.5521 748.164 85.1704 748.635 85.1704C749.106 85.1704 749.488 85.5521 749.488 86.0231Z" fill="#090940"/>
<path d="M760.375 69.4807C759.585 68.7728 758.565 68.3749 757.504 68.3607C756.443 68.3466 755.413 68.7171 754.604 69.4038C753.795 70.0903 753.262 71.0466 753.104 72.0958C752.914 73.3338 753.266 74.5936 754.07 75.5539C754.605 76.197 754.947 76.979 755.056 77.8086C754.787 77.8527 754.589 78.0845 754.586 78.357V79.8863C754.586 80.1729 754.7 80.4475 754.903 80.65C755.105 80.8528 755.38 80.9665 755.666 80.9665H756.121C756.151 81.2581 756.397 81.4796 756.69 81.4781H758.219C758.512 81.4796 758.758 81.2581 758.787 80.9665H759.242C759.529 80.9665 759.803 80.8528 760.006 80.65C760.209 80.4475 760.322 80.1729 760.322 79.8863V78.357C760.32 78.0829 760.12 77.8507 759.849 77.8081C759.938 76.9993 760.265 76.2354 760.789 75.6131C761.54 74.7423 761.918 73.6119 761.844 72.4648C761.769 71.3177 761.248 70.2455 760.391 69.479L760.375 69.4807ZM759.172 79.8271H758.212C757.92 79.8271 757.675 80.0482 757.646 80.3388H757.248C757.219 80.0482 756.974 79.8271 756.682 79.8271H755.722V78.9272H759.172L759.172 79.8271ZM759.914 74.8699H759.914C759.216 75.6937 758.789 76.7126 758.691 77.7879H756.202C756.083 76.6997 755.646 75.6703 754.946 74.829C754.35 74.1151 754.09 73.1799 754.232 72.2612C754.342 71.5564 754.68 70.9072 755.194 70.4124C755.707 69.9175 756.369 69.6038 757.077 69.5193C757.949 69.4175 758.826 69.6728 759.507 70.2273C760.188 70.7816 760.616 71.5879 760.694 72.4627C760.772 73.3375 760.492 74.2065 759.919 74.8721L759.914 74.8699Z" fill="#090940"/>
<path d="M756.878 66.1265H758.015V67.655H756.878V66.1265Z" fill="#090940"/>
<path d="M760.649 68.7464L761.73 67.6655L762.534 68.4695L761.453 69.5504L760.649 68.7464Z" fill="#090940"/>
<path d="M752.36 68.4688L753.164 67.665L754.245 68.7462L753.441 69.5499L752.36 68.4688Z" fill="#090940"/>
<path d="M757.447 70.1455V71.2825C757.837 71.2827 758.21 71.4378 758.486 71.7134C758.761 71.989 758.916 72.3626 758.917 72.7524H760.054C760.053 72.0613 759.778 71.3985 759.29 70.9099C758.801 70.4211 758.138 70.1463 757.447 70.1455L757.447 70.1455Z" fill="#090940"/>
<path d="M788.76 153.42V141.4H787V155H796.52V153.42H788.76ZM805.541 145.24H800.901L798.841 147.3V152.94L800.901 155H805.841L807.601 153.24L806.501 152.14L805.121 153.52H801.661L800.521 152.38V150.72H807.601V147.3L805.541 145.24ZM800.521 149.26V147.86L801.661 146.72H804.781L805.921 147.86V149.26H800.521ZM814.287 145.24L812.227 147.3L812.147 145.24H810.627V155H812.307V148.8L814.187 146.92H816.307V145.24H814.287ZM825.151 145.24H820.511L818.451 147.3V152.94L820.511 155H825.451L827.211 153.24L826.111 152.14L824.731 153.52H821.271L820.131 152.38V150.72H827.211V147.3L825.151 145.24ZM820.131 149.26V147.86L821.271 146.72H824.391L825.531 147.86V149.26H820.131ZM836.937 145.24H833.697L831.837 147.1L831.757 145.24H830.237V155H831.917V148.6L833.777 146.74H836.117L836.977 147.6V155H838.657V146.96L836.937 145.24ZM853.608 145.24H848.968L846.908 147.3V152.94L848.968 155H853.608L855.668 152.94V147.3L853.608 145.24ZM852.868 153.5H849.708L848.588 152.38V147.86L849.708 146.74H852.868L853.988 147.86V152.38L852.868 153.5ZM865.412 145.24L862.452 152.76L859.492 145.24H857.692L861.632 155H863.192L867.132 145.24H865.412ZM875.854 145.24H871.214L869.154 147.3V152.94L871.214 155H876.154L877.914 153.24L876.814 152.14L875.434 153.52H871.974L870.834 152.38V150.72H877.914V147.3L875.854 145.24ZM870.834 149.26V147.86L871.974 146.72H875.094L876.234 147.86V149.26H870.834ZM884.6 145.24L882.54 147.3L882.46 145.24H880.94V155H882.62V148.8L884.5 146.92H886.62V145.24H884.6ZM900.678 145.24H895.618L893.938 146.92L895.038 148.02L896.338 146.72H899.838L900.718 147.6V149.22L895.138 149.6L893.678 151.06V153.34L895.338 155H898.938L900.798 153.14L900.878 155H902.398V146.96L900.678 145.24ZM898.838 153.52H896.098L895.358 152.78V151.62L895.938 151.04L900.718 150.7V151.64L898.838 153.52ZM912.483 145.24H909.243L907.383 147.1L907.303 145.24H905.783V155H907.463V148.6L909.323 146.74H911.663L912.523 147.6V155H914.203V146.96L912.483 145.24ZM924.1 140.6V145.24H919.86L917.14 147.96V152.94L919.2 155H922.32L924.18 153.14L924.26 155H925.78V140.6H924.1ZM922.24 153.5H920.02L918.82 152.3V148.46L920.54 146.74H924.1V151.64L922.24 153.5ZM935.639 145.24H930.999L928.939 147.3V152.94L930.999 155H935.939L937.699 153.24L936.599 152.14L935.219 153.52H931.759L930.619 152.38V150.72H937.699V147.3L935.639 145.24ZM930.619 149.26V147.86L931.759 146.72H934.879L936.019 147.86V149.26H930.619ZM944.385 145.24L942.325 147.3L942.245 145.24H940.725V155H942.405V148.8L944.285 146.92H946.405V145.24H944.385ZM955.248 145.24H950.608L948.548 147.3V152.94L950.608 155H955.548L957.308 153.24L956.208 152.14L954.828 153.52H951.368L950.228 152.38V150.72H957.308V147.3L955.248 145.24ZM950.228 149.26V147.86L951.368 146.72H954.488L955.628 147.86V149.26H950.228ZM967.034 145.24H963.794L961.934 147.1L961.854 145.24H960.334V155H962.014V148.6L963.874 146.74H966.214L967.074 147.6V155H968.754V146.96L967.034 145.24Z" fill="#090940"/>
<path d="M751.5 120L776.182 134.25V162.75L751.5 177L726.818 162.75V134.25L751.5 120Z" fill="#E0DEDC"/>
<path d="M755.032 154.702C754.624 154.702 754.293 155.034 754.293 155.442C754.293 156.337 752.714 157.335 750.449 157.335C748.185 157.335 746.606 156.337 746.606 155.442C746.606 155.034 746.275 154.702 745.866 154.702C745.458 154.702 745.126 155.034 745.126 155.442C745.126 157.333 747.464 158.815 750.449 158.815C753.434 158.815 755.772 157.333 755.772 155.442C755.772 155.034 755.441 154.702 755.032 154.702H755.032Z" fill="#090940"/>
<path d="M750.449 141.929C747.514 141.929 745.126 144.317 745.126 147.252C745.126 150.187 747.514 152.575 750.449 152.575C753.384 152.575 755.772 150.187 755.772 147.252C755.772 144.317 753.384 141.929 750.449 141.929ZM750.449 151.095C748.33 151.095 746.606 149.371 746.606 147.252C746.606 145.133 748.33 143.408 750.449 143.408C752.568 143.408 754.293 145.133 754.293 147.252C754.293 149.371 752.568 151.095 750.449 151.095Z" fill="#090940"/>
<path d="M752.789 147.252C752.789 148.544 751.742 149.592 750.449 149.592C749.157 149.592 748.109 148.544 748.109 147.252C748.109 145.959 749.157 144.912 750.449 144.912C751.742 144.912 752.789 145.959 752.789 147.252Z" fill="#090940"/>
<path d="M761.732 131C760.537 131 759.565 131.972 759.565 133.167C759.565 133.202 759.569 133.237 759.57 133.273C757.081 134.498 756.142 136.806 755.799 138.118C754.228 137.194 752.4 136.663 750.449 136.663C748.499 136.663 746.67 137.194 745.099 138.118C744.756 136.806 743.817 134.498 741.328 133.273C741.329 133.237 741.333 133.202 741.333 133.167C741.333 131.972 740.361 131 739.167 131C737.972 131 737 131.972 737 133.167C737 134.361 737.972 135.333 739.167 135.333C739.792 135.333 740.356 135.065 740.751 134.639C743.092 135.844 743.664 138.303 743.785 139.03C741.392 140.973 739.86 143.936 739.86 147.251L739.861 163.34C739.861 163.749 740.193 164.08 740.601 164.08C741.009 164.08 741.341 163.749 741.341 163.34V147.251C741.341 142.229 745.427 138.143 750.45 138.143C755.472 138.143 759.558 142.229 759.558 147.251V163.34C759.558 163.749 759.89 164.08 760.298 164.08C760.707 164.08 761.038 163.749 761.038 163.34V147.251C761.038 143.936 759.506 140.973 757.114 139.03C757.234 138.303 757.807 135.844 760.147 134.639C760.543 135.065 761.106 135.333 761.732 135.333C762.926 135.333 763.898 134.361 763.898 133.167C763.898 131.972 762.926 131 761.732 131H761.732ZM739.844 133.281C739.813 133.328 739.785 133.379 739.764 133.434C739.748 133.476 739.736 133.519 739.728 133.562C739.604 133.738 739.399 133.854 739.168 133.854C738.789 133.854 738.481 133.546 738.481 133.167C738.481 132.788 738.789 132.48 739.168 132.48C739.547 132.48 739.855 132.788 739.855 133.167C739.854 133.206 739.85 133.244 739.844 133.281V133.281ZM761.732 133.854C761.5 133.854 761.295 133.738 761.171 133.562C761.163 133.519 761.152 133.476 761.136 133.434C761.115 133.379 761.087 133.328 761.055 133.281C761.049 133.244 761.045 133.206 761.045 133.167C761.045 132.788 761.353 132.48 761.732 132.48C762.111 132.48 762.419 132.788 762.419 133.167C762.419 133.546 762.111 133.854 761.732 133.854V133.854Z" fill="#090940"/>
</svg>
